<svg xmlns="http://www.w3.org/2000/svg" xmlns:xlink="http://www.w3.org/1999/xlink" width="500" zoomAndPan="magnify" viewBox="0 0 375 374.999991" height="500" preserveAspectRatio="xMidYMid meet" version="1.0"><defs><g/><clipPath id="f2cd53c1f3"><path d="M 80 222 L 317 222 L 317 323 L 80 323 Z M 80 222 " clip-rule="nonzero"/></clipPath><clipPath id="e583a0220a"><path d="M 74.273438 235.308594 L 313.230469 212.992188 L 322.785156 315.296875 L 83.828125 337.613281 Z M 74.273438 235.308594 " clip-rule="nonzero"/></clipPath><clipPath id="c46b7ba93c"><path d="M 74.273438 235.308594 L 313.230469 212.992188 L 322.785156 315.296875 L 83.828125 337.613281 Z M 74.273438 235.308594 " clip-rule="nonzero"/></clipPath><clipPath id="5e48a79efe"><path d="M 101 222 L 298 222 L 298 300 L 101 300 Z M 101 222 " clip-rule="nonzero"/></clipPath><clipPath id="fb592bc202"><path d="M 74.273438 235.308594 L 313.230469 212.992188 L 322.785156 315.296875 L 83.828125 337.613281 Z M 74.273438 235.308594 " clip-rule="nonzero"/></clipPath><clipPath id="18f43b107c"><path d="M 74.273438 235.308594 L 313.230469 212.992188 L 322.785156 315.296875 L 83.828125 337.613281 Z M 74.273438 235.308594 " clip-rule="nonzero"/></clipPath><clipPath id="5981f6e654"><path d="M 242 265 L 301 265 L 301 300 L 242 300 Z M 242 265 " clip-rule="nonzero"/></clipPath><clipPath id="7e8341dd44"><path d="M 74.273438 235.308594 L 313.230469 212.992188 L 322.785156 315.296875 L 83.828125 337.613281 Z M 74.273438 235.308594 " clip-rule="nonzero"/></clipPath><clipPath id="f127211751"><path d="M 74.273438 235.308594 L 313.230469 212.992188 L 322.785156 315.296875 L 83.828125 337.613281 Z M 74.273438 235.308594 " clip-rule="nonzero"/></clipPath><clipPath id="a90901cdfd"><path d="M 267 219 L 292.140625 219 L 292.140625 223 L 267 223 Z M 267 219 " clip-rule="nonzero"/></clipPath><clipPath id="95e2cefcba"><path d="M 52.140625 222 L 107 222 L 107 246 L 52.140625 246 Z M 52.140625 222 " clip-rule="nonzero"/></clipPath></defs><g fill="#5f4842" fill-opacity="1"><g transform="translate(46.587914, 205.829803)"><g><path d="M 2.953125 -17.078125 C 2.234375 -12.023438 0.191406 -8.53125 -3.171875 -6.59375 C -6.546875 -4.664062 -11.257812 -4.132812 -17.3125 -5 C -29.394531 -6.707031 -34.726562 -12.570312 -33.3125 -22.59375 C -32.78125 -26.351562 -31.4375 -29.234375 -29.28125 -31.234375 C -27.125 -33.234375 -24.289062 -34.140625 -20.78125 -33.953125 C -19.332031 -33.890625 -18.304688 -33.390625 -17.703125 -32.453125 C -17.097656 -31.523438 -16.894531 -30.363281 -17.09375 -28.96875 L -17.125 -28.65625 C -17.320312 -27.269531 -17.84375 -26.316406 -18.6875 -25.796875 C -19.539062 -25.273438 -20.710938 -25.015625 -22.203125 -25.015625 C -23.554688 -25.003906 -24.554688 -24.707031 -25.203125 -24.125 C -25.859375 -23.539062 -26.28125 -22.601562 -26.46875 -21.3125 C -26.71875 -19.550781 -26.054688 -18.164062 -24.484375 -17.15625 C -22.921875 -16.15625 -20.070312 -15.363281 -15.9375 -14.78125 C -12.945312 -14.351562 -10.613281 -14.234375 -8.9375 -14.421875 C -7.269531 -14.617188 -6.078125 -15.046875 -5.359375 -15.703125 C -4.640625 -16.367188 -4.210938 -17.175781 -4.078125 -18.125 C -3.921875 -19.21875 -3.984375 -20.113281 -4.265625 -20.8125 C -4.546875 -21.507812 -5.125 -22.070312 -6 -22.5 C -7.289062 -23.132812 -8.238281 -23.820312 -8.84375 -24.5625 C -9.445312 -25.3125 -9.65625 -26.347656 -9.46875 -27.671875 L -9.46875 -27.71875 C -9.269531 -29.113281 -8.71875 -30.171875 -7.8125 -30.890625 C -6.914062 -31.609375 -5.738281 -31.734375 -4.28125 -31.265625 C -1.257812 -30.304688 0.828125 -28.609375 1.984375 -26.171875 C 3.140625 -23.734375 3.460938 -20.703125 2.953125 -17.078125 Z M 2.953125 -17.078125 "/></g></g></g><g fill="#5f4842" fill-opacity="1"><g transform="translate(52.498879, 168.743901)"><g><path d="M -26.625 -29.453125 C -25.738281 -31.492188 -24.476562 -33.078125 -22.84375 -34.203125 C -21.21875 -35.328125 -19.078125 -35.925781 -16.421875 -36 C -13.773438 -36.082031 -10.476562 -35.59375 -6.53125 -34.53125 C -2.582031 -33.476562 2.175781 -31.796875 7.75 -29.484375 C 9.125 -28.929688 10.03125 -28.144531 10.46875 -27.125 C 10.90625 -26.113281 10.84375 -24.960938 10.28125 -23.671875 L 9.984375 -22.96875 C 8.816406 -20.300781 7.003906 -19.5 4.546875 -20.5625 C 3.921875 -20.84375 3.304688 -21.109375 2.703125 -21.359375 C 2.109375 -21.617188 1.507812 -21.863281 0.90625 -22.09375 L -2.71875 -13.734375 C -2.207031 -13.515625 -1.679688 -13.273438 -1.140625 -13.015625 C -0.609375 -12.765625 -0.046875 -12.515625 0.546875 -12.265625 C 3.222656 -11.097656 3.988281 -9.191406 2.84375 -6.546875 C 2.300781 -5.296875 1.53125 -4.472656 0.53125 -4.078125 C -0.457031 -3.691406 -1.609375 -3.800781 -2.921875 -4.40625 C -4.179688 -5 -5.382812 -5.5625 -6.53125 -6.09375 C -7.6875 -6.625 -8.785156 -7.15625 -9.828125 -7.6875 C -15.234375 -10.476562 -19.328125 -13.082031 -22.109375 -15.5 C -24.890625 -17.925781 -26.585938 -20.273438 -27.203125 -22.546875 C -27.828125 -24.816406 -27.632812 -27.117188 -26.625 -29.453125 Z M -8.296875 -16.265625 L -4.78125 -24.34375 C -8.382812 -25.675781 -11.253906 -26.582031 -13.390625 -27.0625 C -15.523438 -27.539062 -17.117188 -27.660156 -18.171875 -27.421875 C -19.222656 -27.191406 -19.921875 -26.6875 -20.265625 -25.90625 C -20.609375 -25.113281 -20.488281 -24.285156 -19.90625 -23.421875 C -19.332031 -22.554688 -18.117188 -21.5625 -16.265625 -20.4375 C -14.410156 -19.3125 -11.753906 -17.921875 -8.296875 -16.265625 Z M -8.296875 -16.265625 "/></g></g></g><g fill="#5f4842" fill-opacity="1"><g transform="translate(68.407925, 134.219595)"><g><path d="M -7.296875 -42.609375 C -6.441406 -41.921875 -6.003906 -41.085938 -5.984375 -40.109375 C -5.972656 -39.140625 -6.414062 -38.09375 -7.3125 -36.96875 C -7.851562 -36.34375 -8.359375 -35.734375 -8.828125 -35.140625 C -9.296875 -34.546875 -9.773438 -33.945312 -10.265625 -33.34375 L -1.71875 -26.5625 C 0.0507812 -25.164062 1.8125 -23.773438 3.5625 -22.390625 C 5.3125 -21.003906 7.070312 -19.609375 8.84375 -18.203125 C 9.957031 -17.347656 10.578125 -16.390625 10.703125 -15.328125 C 10.828125 -14.265625 10.453125 -13.179688 9.578125 -12.078125 L 9 -11.359375 C 7.195312 -9.078125 5.15625 -8.84375 2.875 -10.65625 C 1.144531 -12.070312 -0.59375 -13.484375 -2.34375 -14.890625 C -4.09375 -16.296875 -5.851562 -17.695312 -7.625 -19.09375 C -9.039062 -20.226562 -10.472656 -21.359375 -11.921875 -22.484375 C -13.378906 -23.617188 -14.804688 -24.738281 -16.203125 -25.84375 C -16.648438 -25.28125 -17.101562 -24.707031 -17.5625 -24.125 C -18.019531 -23.550781 -18.476562 -22.941406 -18.9375 -22.296875 C -19.832031 -21.171875 -20.753906 -20.5 -21.703125 -20.28125 C -22.660156 -20.070312 -23.566406 -20.3125 -24.421875 -21 C -26.222656 -22.425781 -26.21875 -24.285156 -24.40625 -26.578125 L -12.71875 -41.328125 C -10.90625 -43.609375 -9.097656 -44.035156 -7.296875 -42.609375 Z M -7.296875 -42.609375 "/></g></g></g><g fill="#5f4842" fill-opacity="1"><g transform="translate(91.94188, 106.840791)"><g/></g></g><g fill="#5f4842" fill-opacity="1"><g transform="translate(106.108515, 94.348211)"><g><path d="M 24 -18.578125 C 25.40625 -17.859375 26.144531 -17 26.21875 -16 C 26.300781 -15.007812 25.726562 -14.175781 24.5 -13.5 L 23.203125 -12.796875 C 21.222656 -11.703125 19.691406 -11.445312 18.609375 -12.03125 C 18.160156 -12.289062 17.640625 -12.570312 17.046875 -12.875 C 16.378906 -11.457031 15.484375 -10.128906 14.359375 -8.890625 C 13.242188 -7.648438 11.800781 -6.539062 10.03125 -5.5625 C 6.613281 -3.6875 3.722656 -3.078125 1.359375 -3.734375 C -1.003906 -4.390625 -3.109375 -6.398438 -4.953125 -9.765625 C -6.242188 -12.117188 -6.765625 -14.210938 -6.515625 -16.046875 C -6.273438 -17.878906 -5.234375 -19.578125 -3.390625 -21.140625 C -4.804688 -21.929688 -6.085938 -22.820312 -7.234375 -23.8125 C -8.390625 -24.800781 -9.34375 -25.984375 -10.09375 -27.359375 C -11.46875 -29.847656 -11.640625 -32.03125 -10.609375 -33.90625 C -9.585938 -35.78125 -7.492188 -37.585938 -4.328125 -39.328125 C -2.046875 -40.578125 -0.148438 -41.316406 1.359375 -41.546875 C 2.878906 -41.773438 4.15625 -41.566406 5.1875 -40.921875 C 6.21875 -40.273438 7.128906 -39.226562 7.921875 -37.78125 C 9.328125 -35.226562 9.796875 -32.875 9.328125 -30.71875 C 8.867188 -28.570312 7.804688 -26.707031 6.140625 -25.125 C 7.109375 -24.800781 8.117188 -24.46875 9.171875 -24.125 C 10.222656 -23.78125 11.296875 -23.421875 12.390625 -23.046875 C 12.441406 -24.023438 12.453125 -24.972656 12.421875 -25.890625 C 12.335938 -27.398438 12.503906 -28.554688 12.921875 -29.359375 C 13.335938 -30.160156 14.101562 -30.546875 15.21875 -30.515625 C 17.570312 -30.484375 18.816406 -29.078125 18.953125 -26.296875 C 18.984375 -25.378906 18.992188 -24.457031 18.984375 -23.53125 C 18.984375 -22.613281 18.941406 -21.6875 18.859375 -20.75 C 19.734375 -20.394531 20.597656 -20.039062 21.453125 -19.6875 C 22.316406 -19.34375 23.164062 -18.972656 24 -18.578125 Z M -1.515625 -34.1875 C -2.609375 -33.59375 -3.296875 -32.984375 -3.578125 -32.359375 C -3.859375 -31.734375 -3.804688 -31.078125 -3.421875 -30.390625 C -3.085938 -29.785156 -2.554688 -29.222656 -1.828125 -28.703125 C -1.097656 -28.191406 -0.222656 -27.6875 0.796875 -27.1875 C 1.773438 -28.039062 2.46875 -29.046875 2.875 -30.203125 C 3.289062 -31.367188 3.191406 -32.507812 2.578125 -33.625 C 2.203125 -34.3125 1.691406 -34.722656 1.046875 -34.859375 C 0.410156 -35.003906 -0.441406 -34.78125 -1.515625 -34.1875 Z M 7.265625 -11.4375 C 8.054688 -11.863281 8.738281 -12.441406 9.3125 -13.171875 C 9.882812 -13.898438 10.378906 -14.710938 10.796875 -15.609375 C 9.109375 -16.253906 7.453125 -16.84375 5.828125 -17.375 C 4.203125 -17.90625 2.648438 -18.46875 1.171875 -19.0625 C 0.441406 -17.789062 0.648438 -16.109375 1.796875 -14.015625 C 2.628906 -12.503906 3.492188 -11.554688 4.390625 -11.171875 C 5.285156 -10.785156 6.242188 -10.875 7.265625 -11.4375 Z M 7.265625 -11.4375 "/></g></g></g><g fill="#5f4842" fill-opacity="1"><g transform="translate(139.920242, 77.559696)"><g/></g></g><g fill="#5f4842" fill-opacity="1"><g transform="translate(157.729434, 71.538956)"><g><path d="M 8.203125 -0.75 C 5.296875 -0.476562 3.710938 -1.796875 3.453125 -4.703125 C 3.273438 -6.929688 3.09375 -9.160156 2.90625 -11.390625 C 2.71875 -13.628906 2.519531 -15.875 2.3125 -18.125 C 2.113281 -20.34375 1.898438 -22.570312 1.671875 -24.8125 C 1.453125 -27.050781 1.226562 -29.273438 1 -31.484375 C 0.726562 -34.378906 2.046875 -35.960938 4.953125 -36.234375 L 13.75 -37.046875 C 18.9375 -37.515625 22.785156 -36.976562 25.296875 -35.4375 C 27.816406 -33.894531 29.257812 -31.15625 29.625 -27.21875 C 29.875 -24.425781 29.421875 -21.941406 28.265625 -19.765625 C 27.109375 -17.597656 25.351562 -15.847656 23 -14.515625 C 20.644531 -13.191406 17.757812 -12.375 14.34375 -12.0625 L 12.4375 -11.875 C 12.53125 -10.820312 12.625 -9.769531 12.71875 -8.71875 C 12.8125 -7.675781 12.929688 -6.632812 13.078125 -5.59375 C 13.335938 -2.6875 12.019531 -1.097656 9.125 -0.828125 Z M 11.765625 -19.140625 L 13.515625 -19.3125 C 15.941406 -19.53125 17.640625 -20.15625 18.609375 -21.1875 C 19.585938 -22.226562 19.976562 -23.8125 19.78125 -25.9375 C 19.632812 -27.539062 19.050781 -28.644531 18.03125 -29.25 C 17.019531 -29.863281 15.457031 -30.070312 13.34375 -29.875 L 10.875 -29.65625 C 10.957031 -28.28125 11.066406 -26.8125 11.203125 -25.25 C 11.347656 -23.695312 11.535156 -21.660156 11.765625 -19.140625 Z M 11.765625 -19.140625 "/></g></g></g><g fill="#5f4842" fill-opacity="1"><g transform="translate(197.237154, 69.481915)"><g><path d="M 8.15625 1.078125 C 5.269531 0.703125 4.019531 -0.929688 4.40625 -3.828125 L 7.953125 -30.484375 C 8.328125 -33.367188 9.957031 -34.625 12.84375 -34.25 L 13.765625 -34.125 C 16.648438 -33.738281 17.90625 -32.101562 17.53125 -29.21875 L 13.984375 -2.5625 C 13.597656 0.332031 11.960938 1.585938 9.078125 1.203125 Z M 8.15625 1.078125 "/></g></g></g><g fill="#5f4842" fill-opacity="1"><g transform="translate(220.462859, 72.778081)"><g><path d="M 15.15625 -2.765625 C 16.082031 -2.492188 17.003906 -2.210938 17.921875 -1.921875 C 18.835938 -1.628906 19.757812 -1.34375 20.6875 -1.0625 C 23.53125 -0.195312 24.535156 1.445312 23.703125 3.875 C 22.859375 6.375 21.054688 7.15625 18.296875 6.21875 L 7.796875 2.65625 C 6.460938 2.195312 5.5625 1.488281 5.09375 0.53125 C 4.625 -0.425781 4.628906 -1.566406 5.109375 -2.890625 C 5.835938 -5.035156 6.570312 -7.164062 7.3125 -9.28125 C 8.050781 -11.40625 8.773438 -13.519531 9.484375 -15.625 C 10.203125 -17.738281 10.914062 -19.859375 11.625 -21.984375 C 12.332031 -24.117188 13.046875 -26.242188 13.765625 -28.359375 C 14.179688 -29.691406 14.867188 -30.59375 15.828125 -31.0625 C 16.785156 -31.539062 17.929688 -31.550781 19.265625 -31.09375 L 20.140625 -30.796875 C 22.898438 -29.859375 23.8125 -28.007812 22.875 -25.25 C 22.15625 -23.132812 21.421875 -21.019531 20.671875 -18.90625 C 19.929688 -16.789062 19.203125 -14.675781 18.484375 -12.5625 Z M 15.15625 -2.765625 "/></g></g></g><g fill="#5f4842" fill-opacity="1"><g transform="translate(249.551262, 83.321564)"><g><path d="M 15.40625 0.609375 C 16.238281 1.078125 17.070312 1.554688 17.90625 2.046875 C 18.738281 2.535156 19.570312 3.019531 20.40625 3.5 C 23.007812 4.957031 23.640625 6.785156 22.296875 8.984375 C 20.921875 11.234375 18.988281 11.597656 16.5 10.078125 L 7.03125 4.296875 C 5.832031 3.554688 5.109375 2.664062 4.859375 1.625 C 4.609375 0.59375 4.859375 -0.515625 5.609375 -1.703125 C 6.785156 -3.628906 7.96875 -5.546875 9.15625 -7.453125 C 10.34375 -9.359375 11.515625 -11.265625 12.671875 -13.171875 C 13.835938 -15.066406 14.992188 -16.976562 16.140625 -18.90625 C 17.296875 -20.832031 18.457031 -22.75 19.625 -24.65625 C 20.332031 -25.863281 21.207031 -26.59375 22.25 -26.84375 C 23.289062 -27.101562 24.410156 -26.863281 25.609375 -26.125 L 26.390625 -25.65625 C 28.878906 -24.132812 29.363281 -22.128906 27.84375 -19.640625 C 26.675781 -17.734375 25.5 -15.828125 24.3125 -13.921875 C 23.132812 -12.015625 21.960938 -10.113281 20.796875 -8.21875 Z M 15.40625 0.609375 "/></g></g></g><g fill="#5f4842" fill-opacity="1"><g transform="translate(275.581736, 99.243642)"><g><path d="M 11.9375 13.0625 C 4.925781 5.820312 5.816406 -2.054688 14.609375 -10.578125 C 23.378906 -19.078125 31.269531 -19.707031 38.28125 -12.46875 C 45.269531 -5.257812 44.378906 2.59375 35.609375 11.09375 C 26.816406 19.613281 18.925781 20.269531 11.9375 13.0625 Z M 16.921875 8.234375 C 17.878906 9.222656 18.867188 9.75 19.890625 9.8125 C 20.910156 9.875 22.125 9.4375 23.53125 8.5 C 24.9375 7.5625 26.6875 6.078125 28.78125 4.046875 C 30.875 2.015625 32.40625 0.316406 33.375 -1.046875 C 34.34375 -2.410156 34.804688 -3.597656 34.765625 -4.609375 C 34.734375 -5.628906 34.238281 -6.632812 33.28125 -7.625 C 32.351562 -8.582031 31.375 -9.097656 30.34375 -9.171875 C 29.320312 -9.253906 28.101562 -8.84375 26.6875 -7.9375 C 25.28125 -7.03125 23.53125 -5.5625 21.4375 -3.53125 C 19.34375 -1.5 17.8125 0.210938 16.84375 1.609375 C 15.882812 3.003906 15.425781 4.21875 15.46875 5.25 C 15.507812 6.28125 15.992188 7.273438 16.921875 8.234375 Z M 16.921875 8.234375 "/></g></g></g><g fill="#5f4842" fill-opacity="1"><g transform="translate(303.385873, 127.497203)"><g><path d="M 43.8125 19.96875 C 46.664062 18.613281 48.710938 19.234375 49.953125 21.828125 C 50.546875 23.066406 50.632812 24.191406 50.21875 25.203125 C 49.8125 26.222656 48.910156 27.019531 47.515625 27.59375 C 40.796875 30.550781 35.140625 32.613281 30.546875 33.78125 C 25.953125 34.945312 22.289062 35.203125 19.5625 34.546875 C 16.84375 33.890625 14.867188 32.28125 13.640625 29.71875 C 12.617188 27.582031 12.5 25.519531 13.28125 23.53125 C 14.0625 21.550781 15.601562 19.628906 17.90625 17.765625 C 14.945312 18.234375 12.382812 18.023438 10.21875 17.140625 C 8.0625 16.253906 6.46875 14.722656 5.4375 12.546875 C 4.320312 10.234375 4.394531 7.851562 5.65625 5.40625 C 6.914062 2.96875 9.460938 0.367188 13.296875 -2.390625 C 17.128906 -5.148438 22.320312 -8.175781 28.875 -11.46875 C 30.226562 -12.15625 31.421875 -12.328125 32.453125 -11.984375 C 33.492188 -11.648438 34.316406 -10.847656 34.921875 -9.578125 L 35.234375 -8.9375 C 36.492188 -6.300781 35.695312 -4.304688 32.84375 -2.953125 C 28.863281 -1.003906 25.613281 0.660156 23.09375 2.046875 C 20.570312 3.441406 18.648438 4.640625 17.328125 5.640625 C 16.003906 6.640625 15.144531 7.507812 14.75 8.25 C 14.351562 8.988281 14.296875 9.65625 14.578125 10.25 C 15.023438 11.175781 15.671875 11.738281 16.515625 11.9375 C 17.359375 12.144531 18.5625 11.992188 20.125 11.484375 C 21.6875 10.984375 23.769531 10.117188 26.375 8.890625 C 28.976562 7.671875 32.273438 6.101562 36.265625 4.1875 C 39.117188 2.832031 41.175781 3.472656 42.4375 6.109375 L 42.71875 6.71875 C 43.976562 9.332031 43.179688 11.316406 40.328125 12.671875 C 36.347656 14.628906 33.09375 16.300781 30.5625 17.6875 C 28.039062 19.082031 26.117188 20.28125 24.796875 21.28125 C 23.472656 22.28125 22.609375 23.140625 22.203125 23.859375 C 21.804688 24.585938 21.75 25.242188 22.03125 25.828125 C 22.34375 26.484375 22.910156 26.894531 23.734375 27.0625 C 24.566406 27.226562 25.785156 27.109375 27.390625 26.703125 C 28.992188 26.296875 31.128906 25.539062 33.796875 24.4375 C 36.460938 23.34375 39.800781 21.851562 43.8125 19.96875 Z M 43.8125 19.96875 "/></g></g></g><g fill="#5f4842" fill-opacity="1"><g transform="translate(323.943427, 174.929868)"><g><path d="M 1.53125 14.984375 C 0.601562 8.191406 2.363281 3.835938 6.8125 1.921875 C 8.15625 1.359375 9.269531 1.421875 10.15625 2.109375 C 11.050781 2.796875 11.585938 3.789062 11.765625 5.09375 L 11.828125 5.546875 C 11.929688 6.359375 11.859375 7.015625 11.609375 7.515625 C 11.367188 8.015625 11.03125 8.492188 10.59375 8.953125 C 10.15625 9.421875 9.65625 9.984375 9.09375 10.640625 C 8.507812 11.441406 8.332031 12.675781 8.5625 14.34375 C 8.925781 17.019531 10.144531 18.21875 12.21875 17.9375 C 13.40625 17.769531 14.273438 17.253906 14.828125 16.390625 C 15.378906 15.523438 15.789062 14.4375 16.0625 13.125 C 16.34375 11.820312 16.617188 10.453125 16.890625 9.015625 C 17.160156 7.585938 17.570312 6.203125 18.125 4.859375 C 18.6875 3.523438 19.550781 2.378906 20.71875 1.421875 C 21.882812 0.460938 23.503906 -0.160156 25.578125 -0.453125 C 29.410156 -0.972656 32.296875 -0.222656 34.234375 1.796875 C 36.179688 3.816406 37.4375 6.878906 38 10.984375 C 38.550781 14.960938 38.15625 18.066406 36.8125 20.296875 C 35.46875 22.535156 33.300781 23.988281 30.3125 24.65625 C 28.925781 24.9375 27.820312 24.726562 27 24.03125 C 26.1875 23.332031 25.691406 22.34375 25.515625 21.0625 C 25.335938 19.769531 25.582031 18.800781 26.25 18.15625 C 26.925781 17.507812 27.957031 16.9375 29.34375 16.4375 C 30.394531 16.050781 31.070312 15.46875 31.375 14.6875 C 31.6875 13.914062 31.757812 12.925781 31.59375 11.71875 C 31.394531 10.25 30.882812 9.28125 30.0625 8.8125 C 29.238281 8.34375 28.21875 8.191406 27 8.359375 C 25.8125 8.515625 24.910156 8.941406 24.296875 9.640625 C 23.679688 10.347656 23.238281 11.238281 22.96875 12.3125 C 22.695312 13.382812 22.476562 14.546875 22.3125 15.796875 C 22.15625 17.054688 21.957031 18.316406 21.71875 19.578125 C 21.476562 20.835938 21.097656 22.019531 20.578125 23.125 C 20.054688 24.238281 19.285156 25.175781 18.265625 25.9375 C 17.242188 26.707031 15.867188 27.210938 14.140625 27.453125 C 10.640625 27.929688 7.816406 27.117188 5.671875 25.015625 C 3.535156 22.921875 2.15625 19.578125 1.53125 14.984375 Z M 1.53125 14.984375 "/></g></g></g><g clip-path="url(#f2cd53c1f3)"><g clip-path="url(#e583a0220a)"><g clip-path="url(#c46b7ba93c)"><path fill="#5f4842" d="M 195.804688 223.941406 C 248.5 219.019531 293.675781 231.777344 303 252.996094 C 303.820312 254.863281 305.210938 256.171875 307.125 256.871094 C 311.734375 258.570312 317.5625 262.167969 316.316406 266.734375 C 315.53125 269.617188 311.691406 271.226562 306.894531 271.050781 C 304.269531 270.953125 301.964844 272.160156 300.542969 274.371094 C 291.683594 288.179688 269.542969 300.613281 240.632812 308.097656 C 236.886719 309.066406 234.570312 312.804688 235.367188 316.589844 C 235.515625 317.28125 235.507812 317.964844 235.328125 318.625 C 234.28125 322.464844 227.808594 324.046875 220.878906 322.15625 C 216.882812 321.066406 213.609375 319.0625 211.75 316.824219 C 210.167969 314.921875 207.941406 314.007812 205.476562 314.25 C 205.070312 314.292969 204.660156 314.332031 204.25 314.371094 C 155.511719 318.921875 113.214844 308.351562 99.753906 289.953125 C 97.925781 287.453125 94.875 286.414062 91.898438 287.28125 C 86.726562 288.785156 82.058594 288.007812 80.640625 285.09375 C 78.902344 281.515625 82.730469 276.066406 89.191406 272.925781 C 90.4375 272.320312 91.691406 271.84375 92.914062 271.496094 C 95.011719 270.898438 96.578125 269.558594 97.496094 267.578125 C 107.082031 246.886719 146.835938 228.515625 195.804688 223.941406 " fill-opacity="1" fill-rule="evenodd"/></g></g></g><g clip-path="url(#5e48a79efe)"><g clip-path="url(#fb592bc202)"><g clip-path="url(#18f43b107c)"><path fill="#432e36" d="M 195.804688 223.941406 C 240.800781 219.742188 280.308594 228.425781 296.703125 244.265625 C 297.898438 245.417969 298.269531 247.070312 297.691406 248.621094 C 297.109375 250.175781 295.746094 251.179688 294.089844 251.269531 C 273.195312 252.398438 236.746094 287.5 225.8125 296.03125 C 221.144531 299.671875 215.105469 300.148438 209.921875 297.289062 C 176.011719 278.558594 148.945312 257.152344 107.382812 264.394531 C 107.382812 264.394531 99.691406 265.210938 102.570312 259.824219 C 117.339844 242.441406 153.058594 227.933594 195.804688 223.941406 " fill-opacity="1" fill-rule="evenodd"/></g></g></g><g clip-path="url(#5981f6e654)"><g clip-path="url(#7e8341dd44)"><g clip-path="url(#f127211751)"><path fill="#af8d86" d="M 242.683594 299.796875 C 248.546875 294.523438 254.753906 289.746094 261.238281 285.421875 C 262.457031 284.605469 263.703125 284.207031 265.171875 284.160156 C 268.78125 284.039062 273.035156 284 276.621094 282.757812 C 259.6875 292.726562 242.683594 299.796875 242.683594 299.796875 Z M 287.898438 270.703125 C 292.070312 268.8125 296.3125 267.050781 300.613281 265.417969 C 295.335938 270.53125 288.398438 275.503906 281.15625 280.011719 C 281.476562 279.6875 281.773438 279.34375 282.054688 278.964844 C 283.035156 277.640625 283.484375 276.585938 283.714844 275.6875 C 284.300781 273.402344 285.75 271.675781 287.898438 270.703125 " fill-opacity="1" fill-rule="evenodd"/></g></g></g><path fill="#5f4842" d="M 268 218.988281 C 268.039062 218.988281 268.078125 218.984375 268.117188 218.976562 C 277.503906 217.023438 290.210938 216.886719 290.339844 216.886719 C 290.664062 216.882812 290.921875 216.617188 290.917969 216.292969 C 290.917969 215.972656 290.65625 215.714844 290.332031 215.714844 C 290.332031 215.714844 290.332031 215.714844 290.328125 215.714844 C 290.199219 215.714844 277.378906 215.855469 267.878906 217.832031 C 267.5625 217.898438 267.359375 218.207031 267.425781 218.523438 C 267.484375 218.800781 267.726562 218.988281 268 218.988281 Z M 268 218.988281 " fill-opacity="1" fill-rule="nonzero"/><g clip-path="url(#a90901cdfd)"><path fill="#5f4842" d="M 291.496094 222.398438 C 291.777344 222.398438 292.027344 222.195312 292.074219 221.90625 C 292.125 221.585938 291.90625 221.289062 291.589844 221.234375 C 290.9375 221.132812 275.574219 218.6875 268.050781 219.679688 C 267.730469 219.722656 267.507812 220.015625 267.546875 220.335938 C 267.589844 220.65625 267.886719 220.882812 268.207031 220.839844 C 275.558594 219.871094 291.246094 222.367188 291.402344 222.390625 C 291.433594 222.398438 291.464844 222.398438 291.496094 222.398438 Z M 291.496094 222.398438 " fill-opacity="1" fill-rule="nonzero"/></g><path fill="#af8d86" d="M 253.59375 235.117188 C 258.121094 236.128906 263.78125 237.003906 270.320312 237.132812 C 277.410156 237.277344 283.53125 236.503906 288.339844 235.558594 C 288.574219 234.785156 288.632812 234.066406 288.570312 233.398438 C 287.660156 224.199219 262.136719 220.316406 259.570312 219.945312 C 257.578125 225 255.585938 230.058594 253.59375 235.117188 Z M 253.59375 235.117188 " fill-opacity="1" fill-rule="nonzero"/><path fill="#af8d86" d="M 102.109375 230.792969 C 102.332031 258.667969 116.347656 282.542969 126.332031 286.695312 C 127.21875 287.070312 129.457031 287.992188 130.808594 286.992188 C 134.109375 284.546875 129.402344 272.648438 125.128906 263.375 C 130.113281 263.960938 134.011719 263.21875 136.691406 262.382812 C 154.429688 256.820312 159.191406 234.339844 159.511719 232.707031 C 167.808594 232.769531 176.1875 232.882812 184.632812 233.046875 C 191.765625 233.179688 198.835938 233.347656 205.851562 233.546875 C 206.230469 247.820312 207.347656 264.488281 210.914062 264.875 C 211.898438 264.980469 212.828125 263.828125 214.203125 261.585938 C 217.089844 256.878906 221.5 248.097656 223.484375 234.164062 C 228.414062 234.355469 233.367188 234.574219 238.347656 234.808594 C 248.820312 235.304688 259.175781 235.882812 269.410156 236.535156 C 270.195312 235.160156 271.203125 233.109375 271.917969 230.492188 C 272.558594 228.132812 272.824219 225.867188 272.828125 223.742188 C 272.835938 220.714844 272.339844 217.980469 271.71875 215.679688 C 271.242188 213.917969 270.703125 212.410156 270.269531 211.207031 C 267.25 202.855469 262.15625 197.273438 258.761719 194.171875 C 258.363281 192.691406 254.902344 180.050781 251.984375 180.367188 C 249.554688 180.636719 248.664062 189.71875 248.457031 192.160156 C 248.457031 192.175781 248.453125 192.199219 248.453125 192.214844 C 247.328125 192.214844 245.964844 192.214844 244.414062 192.230469 C 242.09375 192.246094 240.234375 192.285156 239.144531 192.308594 C 238.621094 192.320312 238.074219 192.332031 237.488281 192.351562 C 236.578125 192.378906 235.597656 192.410156 234.546875 192.445312 C 233.9375 191.234375 232.96875 189.453125 231.558594 187.445312 C 230.777344 186.332031 224.667969 177.628906 221.839844 178.621094 C 218.710938 179.730469 220.671875 192.355469 220.796875 193.125 C 213.933594 184.792969 206.179688 178.042969 198.003906 172.867188 C 194.796875 170.832031 191.53125 169.039062 188.222656 167.492188 C 184.476562 165.730469 180.683594 164.285156 176.890625 163.15625 C 171.589844 161.570312 166.292969 160.589844 161.117188 160.230469 C 155.882812 159.855469 150.777344 160.101562 145.917969 160.972656 C 142.324219 161.609375 138.863281 162.59375 135.585938 163.917969 C 132.96875 164.964844 130.476562 166.234375 128.121094 167.714844 C 101.726562 184.335938 102.046875 222.394531 102.109375 230.792969 Z M 102.109375 230.792969 " fill-opacity="1" fill-rule="nonzero"/><path fill="#5f4842" d="M 228.457031 217.011719 C 228.722656 217.011719 228.960938 216.832031 229.027344 216.566406 C 229.101562 216.25 228.910156 215.933594 228.597656 215.859375 C 219.171875 213.558594 206.363281 212.984375 206.234375 212.980469 C 205.90625 212.972656 205.636719 213.214844 205.625 213.539062 C 205.609375 213.863281 205.859375 214.136719 206.183594 214.148438 C 206.308594 214.15625 219.007812 214.722656 228.320312 216.996094 C 228.367188 217.007812 228.414062 217.011719 228.457031 217.011719 Z M 228.457031 217.011719 " fill-opacity="1" fill-rule="nonzero"/><path fill="#5f4842" d="M 204.859375 219.621094 C 204.882812 219.621094 204.90625 219.621094 204.933594 219.617188 C 205.089844 219.597656 220.855469 217.636719 228.167969 218.855469 C 228.492188 218.90625 228.789062 218.691406 228.84375 218.375 C 228.894531 218.054688 228.679688 217.753906 228.363281 217.699219 C 220.878906 216.453125 205.441406 218.371094 204.785156 218.453125 C 204.464844 218.496094 204.238281 218.789062 204.277344 219.109375 C 204.316406 219.40625 204.566406 219.621094 204.859375 219.621094 Z M 204.859375 219.621094 " fill-opacity="1" fill-rule="nonzero"/><path fill="#5f4842" d="M 230.734375 221.339844 C 231.089844 224.597656 236.101562 227.203125 239.1875 225.472656 C 240.585938 224.691406 241.667969 222.976562 241.480469 221.339844 C 241.101562 218.011719 235.542969 215.535156 232.59375 217.484375 C 231.375 218.289062 230.578125 219.867188 230.734375 221.339844 Z M 230.734375 221.339844 " fill-opacity="1" fill-rule="nonzero"/><path fill="#5f4842" d="M 269.128906 223.328125 C 270.0625 224.019531 271.441406 224.101562 272.832031 223.746094 C 272.835938 220.71875 272.339844 217.984375 271.71875 215.683594 C 269.949219 216.507812 268.371094 217.976562 267.964844 219.644531 C 267.636719 221.023438 268.089844 222.550781 269.128906 223.328125 Z M 269.128906 223.328125 " fill-opacity="1" fill-rule="nonzero"/><path fill="#5f4842" d="M 257.757812 226.96875 C 257.515625 229.421875 258.132812 231.371094 259.351562 231.855469 C 259.734375 232.007812 260.078125 231.972656 260.207031 231.960938 C 261.601562 231.808594 262.8125 230.082031 263.378906 227.722656 C 262.511719 226.84375 261.503906 225.617188 260.660156 223.996094 C 260.320312 223.339844 260.054688 222.710938 259.84375 222.125 C 259.886719 222.710938 259.914062 224.160156 259.019531 225.582031 C 258.609375 226.230469 258.132812 226.675781 257.757812 226.96875 Z M 257.757812 226.96875 " fill-opacity="1" fill-rule="nonzero"/><path fill="#5f4842" d="M 225.019531 193.347656 C 226.589844 193.195312 228.164062 193.046875 229.734375 192.894531 C 229.609375 192.613281 229.425781 192.210938 229.175781 191.742188 C 228.980469 191.375 226.875 187.4375 225.839844 187.496094 C 224.824219 187.554688 224.925781 191.492188 225.019531 193.347656 Z M 225.019531 193.347656 " fill-opacity="1" fill-rule="nonzero"/><path fill="#5f4842" d="M 251.347656 192.535156 C 252.546875 192.679688 253.75 192.820312 254.953125 192.964844 C 254.898438 192.660156 254.816406 192.234375 254.695312 191.726562 C 254.601562 191.328125 253.574219 187.070312 252.789062 186.9375 C 252.015625 186.808594 251.535156 190.695312 251.347656 192.535156 Z M 251.347656 192.535156 " fill-opacity="1" fill-rule="nonzero"/><path fill="#5f4842" d="M 256.261719 219.40625 C 256.800781 220.695312 257.542969 221.492188 258.011719 221.921875 C 258.703125 222.550781 259.453125 223.234375 260.339844 223.109375 C 261.050781 223.007812 261.5 222.433594 262.09375 221.675781 C 262.804688 220.765625 263.175781 219.871094 263.375 219.253906 C 262.402344 219.066406 261.160156 218.917969 259.71875 218.957031 C 258.359375 218.992188 257.191406 219.1875 256.261719 219.40625 Z M 256.261719 219.40625 " fill-opacity="1" fill-rule="nonzero"/><path fill="#5f4842" d="M 256.066406 229.4375 C 256.167969 229.4375 256.269531 229.414062 256.363281 229.355469 C 257.164062 228.878906 258.640625 227.785156 259.550781 225.828125 C 259.808594 225.265625 259.984375 224.71875 260.101562 224.199219 C 260.519531 224.984375 261.015625 225.722656 261.59375 226.414062 C 262.480469 227.472656 263.527344 228.382812 264.710938 229.109375 C 264.984375 229.28125 265.347656 229.195312 265.515625 228.921875 C 265.6875 228.644531 265.601562 228.285156 265.328125 228.117188 C 264.25 227.453125 263.296875 226.625 262.492188 225.660156 C 261.441406 224.40625 260.679688 222.964844 260.21875 221.375 C 260.132812 221.082031 259.835938 220.902344 259.539062 220.964844 C 259.242188 221.027344 259.039062 221.304688 259.074219 221.609375 C 259.183594 222.5 259.167969 223.867188 258.488281 225.332031 C 257.710938 227.007812 256.449219 227.941406 255.765625 228.351562 C 255.488281 228.515625 255.394531 228.875 255.5625 229.152344 C 255.671875 229.335938 255.867188 229.4375 256.066406 229.4375 Z M 256.066406 229.4375 " fill-opacity="1" fill-rule="nonzero"/><g clip-path="url(#95e2cefcba)"><path fill="#af8d86" d="M 55.777344 244.445312 C 60.136719 247.128906 64.492188 241.203125 79.492188 236.671875 C 87.523438 234.246094 94.078125 233.566406 98.226562 233.355469 C 99.859375 233.269531 101.21875 233.253906 102.167969 233.253906 C 103.519531 230.964844 104.871094 228.675781 106.222656 226.382812 C 104.183594 225.550781 100.292969 224.117188 95.238281 223.320312 C 75.90625 220.265625 52.964844 228.640625 52.390625 237.867188 C 52.234375 240.386719 53.644531 243.132812 55.777344 244.445312 Z M 55.777344 244.445312 " fill-opacity="1" fill-rule="nonzero"/></g><path fill="#5f4842" d="M 243.617188 217.625 C 245.519531 217.625 247.414062 217.1875 248.992188 215.96875 C 249.703125 215.417969 250.320312 214.730469 250.824219 213.921875 C 250.996094 213.648438 250.914062 213.285156 250.636719 213.113281 C 250.363281 212.945312 250.003906 213.027344 249.832031 213.300781 C 249.402344 213.992188 248.878906 214.578125 248.277344 215.042969 C 243.421875 218.789062 234.5625 213.847656 234.472656 213.800781 C 234.191406 213.640625 233.835938 213.738281 233.675781 214.019531 C 233.515625 214.300781 233.617188 214.660156 233.898438 214.816406 C 234.175781 214.976562 238.929688 217.625 243.617188 217.625 Z M 243.617188 217.625 " fill-opacity="1" fill-rule="nonzero"/><path fill="#5f4842" d="M 267.179688 215.914062 C 270.710938 215.914062 272.207031 213.816406 272.28125 213.703125 C 272.464844 213.4375 272.398438 213.074219 272.132812 212.890625 C 271.871094 212.707031 271.503906 212.773438 271.320312 213.039062 C 271.238281 213.152344 269.320312 215.75 264.375 214.304688 C 264.0625 214.214844 263.738281 214.394531 263.648438 214.703125 C 263.554688 215.011719 263.734375 215.339844 264.046875 215.429688 C 265.230469 215.773438 266.273438 215.914062 267.179688 215.914062 Z M 267.179688 215.914062 " fill-opacity="1" fill-rule="nonzero"/><path fill="#432e36" d="M 237.488281 192.351562 C 239.144531 194.539062 240.636719 196.359375 241.871094 197.808594 C 249.390625 206.667969 252.234375 207.644531 254.109375 207.207031 C 254.453125 207.128906 254.765625 207.054688 255.027344 206.777344 C 256.984375 204.753906 251.695312 196.703125 248.457031 192.160156 C 248.457031 192.179688 248.453125 192.203125 248.453125 192.21875 C 247.328125 192.21875 245.964844 192.21875 244.414062 192.230469 C 242.09375 192.25 240.234375 192.289062 239.144531 192.3125 C 238.625 192.324219 238.074219 192.335938 237.488281 192.351562 Z M 237.488281 192.351562 " fill-opacity="1" fill-rule="nonzero"/><path fill="#ffeae0" d="M 205.25 232.558594 C 205.261719 232.558594 205.273438 232.558594 205.289062 232.554688 C 205.609375 232.535156 205.855469 232.257812 205.835938 231.933594 C 205.832031 231.902344 205.625 228.664062 205.734375 224.609375 C 205.742188 224.285156 205.488281 224.015625 205.164062 224.007812 C 204.851562 223.980469 204.570312 224.253906 204.5625 224.578125 C 204.453125 228.691406 204.664062 231.976562 204.664062 232.007812 C 204.6875 232.320312 204.941406 232.558594 205.25 232.558594 Z M 205.25 232.558594 " fill-opacity="1" fill-rule="nonzero"/><path fill="#ffeae0" d="M 160.171875 230.769531 C 160.460938 230.769531 160.714844 230.558594 160.753906 230.261719 C 161.960938 221.148438 162.125 212.449219 161.230469 205.109375 C 161.191406 204.789062 160.902344 204.558594 160.578125 204.597656 C 160.253906 204.636719 160.027344 204.929688 160.066406 205.25 C 160.953125 212.492188 160.789062 221.089844 159.59375 230.109375 C 159.550781 230.429688 159.773438 230.722656 160.09375 230.765625 C 160.121094 230.769531 160.148438 230.769531 160.171875 230.769531 Z M 160.171875 230.769531 " fill-opacity="1" fill-rule="nonzero"/><path fill="#ffeae0" d="M 101.972656 229.429688 C 101.972656 229.429688 101.976562 229.429688 101.980469 229.429688 C 102.300781 229.425781 102.5625 229.164062 102.558594 228.839844 C 102.535156 226.789062 102.671875 226.152344 102.671875 226.144531 C 102.742188 225.832031 102.546875 225.515625 102.238281 225.445312 C 101.925781 225.371094 101.613281 225.558594 101.535156 225.871094 C 101.515625 225.941406 101.363281 226.632812 101.386719 228.851562 C 101.390625 229.171875 101.652344 229.429688 101.972656 229.429688 Z M 101.972656 229.429688 " fill-opacity="1" fill-rule="nonzero"/><path fill="#ffeae0" d="M 270.402344 235.570312 C 270.601562 235.570312 270.796875 235.46875 270.90625 235.289062 C 273.378906 231.183594 273.414062 226.292969 273.414062 226.085938 C 273.414062 225.761719 273.152344 225.5 272.832031 225.5 C 272.828125 225.5 272.828125 225.5 272.828125 225.5 C 272.507812 225.5 272.246094 225.761719 272.242188 226.082031 C 272.242188 226.132812 272.203125 230.863281 269.902344 234.683594 C 269.734375 234.960938 269.824219 235.320312 270.101562 235.488281 C 270.195312 235.542969 270.300781 235.570312 270.402344 235.570312 Z M 270.402344 235.570312 " fill-opacity="1" fill-rule="nonzero"/><path fill="#ffeae0" d="M 223.859375 233.277344 C 224.144531 233.277344 224.390625 233.070312 224.4375 232.78125 C 224.449219 232.699219 224.742188 230.792969 224.742188 228.28125 C 224.742188 227.960938 224.480469 227.695312 224.160156 227.695312 C 223.835938 227.695312 223.574219 227.960938 223.574219 228.28125 C 223.574219 230.699219 223.285156 232.582031 223.28125 232.601562 C 223.230469 232.917969 223.449219 233.21875 223.769531 233.269531 C 223.800781 233.273438 223.832031 233.277344 223.859375 233.277344 Z M 223.859375 233.277344 " fill-opacity="1" fill-rule="nonzero"/><path fill="#ffeae0" d="M 210.519531 264.261719 C 210.699219 264.261719 210.878906 264.179688 210.996094 264.019531 C 212.933594 261.320312 214.632812 255.824219 214.703125 255.589844 C 214.796875 255.28125 214.625 254.953125 214.316406 254.859375 C 214.003906 254.765625 213.679688 254.9375 213.582031 255.246094 C 213.566406 255.304688 211.871094 260.792969 210.042969 263.335938 C 209.855469 263.597656 209.914062 263.964844 210.175781 264.152344 C 210.28125 264.226562 210.398438 264.261719 210.519531 264.261719 Z M 210.519531 264.261719 " fill-opacity="1" fill-rule="nonzero"/><path fill="#ffeae0" d="M 209.695312 262.171875 C 209.945312 262.171875 210.175781 262.011719 210.253906 261.761719 C 210.632812 260.566406 210.953125 259.339844 211.203125 258.113281 C 211.410156 257.113281 211.574219 256.085938 211.691406 255.066406 C 211.726562 254.746094 211.496094 254.453125 211.175781 254.417969 C 210.855469 254.382812 210.5625 254.613281 210.527344 254.933594 C 210.414062 255.917969 210.253906 256.910156 210.058594 257.878906 C 209.816406 259.066406 209.507812 260.253906 209.140625 261.40625 C 209.039062 261.714844 209.210938 262.046875 209.519531 262.144531 C 209.578125 262.160156 209.636719 262.171875 209.695312 262.171875 Z M 209.695312 262.171875 " fill-opacity="1" fill-rule="nonzero"/><path fill="#ffeae0" d="M 129.992188 286.699219 C 130.3125 286.699219 130.574219 286.441406 130.574219 286.121094 C 130.613281 281.570312 129.027344 277.71875 128.960938 277.554688 C 128.835938 277.257812 128.496094 277.117188 128.195312 277.242188 C 127.898438 277.367188 127.757812 277.707031 127.882812 278.007812 C 127.894531 278.042969 129.441406 281.804688 129.40625 286.109375 C 129.402344 286.433594 129.664062 286.699219 129.984375 286.699219 C 129.988281 286.699219 129.988281 286.699219 129.992188 286.699219 Z M 129.992188 286.699219 " fill-opacity="1" fill-rule="nonzero"/><path fill="#ffeae0" d="M 128.035156 286.699219 C 128.058594 286.699219 128.085938 286.699219 128.109375 286.695312 C 128.429688 286.65625 128.65625 286.363281 128.617188 286.042969 C 128.238281 283.003906 126.195312 278.304688 126.105469 278.109375 C 125.976562 277.8125 125.632812 277.675781 125.335938 277.804688 C 125.039062 277.9375 124.90625 278.28125 125.035156 278.578125 C 125.054688 278.625 127.097656 283.316406 127.457031 286.1875 C 127.492188 286.484375 127.746094 286.699219 128.035156 286.699219 Z M 128.035156 286.699219 " fill-opacity="1" fill-rule="nonzero"/><path fill="#432e36" d="M 181.132812 187.800781 C 183.304688 189.21875 193.203125 181.378906 198.003906 172.867188 C 194.796875 170.832031 191.53125 169.039062 188.222656 167.492188 C 186.683594 169.953125 185.277344 172.617188 184.21875 175.046875 C 183.03125 177.78125 179.203125 186.550781 181.132812 187.800781 Z M 181.132812 187.800781 " fill-opacity="1" fill-rule="nonzero"/><path fill="#432e36" d="M 161.117188 160.230469 C 161.09375 162.078125 161.15625 163.964844 161.214844 165.777344 C 161.398438 171.300781 161.777344 182.667969 165.484375 183.417969 C 169.113281 184.15625 174.734375 174.507812 176.46875 165.777344 C 176.621094 165.003906 176.765625 164.121094 176.890625 163.15625 C 171.589844 161.570312 166.292969 160.589844 161.117188 160.230469 Z M 161.117188 160.230469 " fill-opacity="1" fill-rule="nonzero"/><path fill="#432e36" d="M 135.585938 163.917969 C 136.605469 166.382812 137.851562 168.835938 138.882812 170.867188 C 140.65625 174.355469 143.753906 180.46875 145.65625 179.929688 C 147.675781 179.367188 147.230469 172.164062 147.148438 170.867188 C 147.054688 169.378906 146.898438 165.09375 145.917969 160.972656 C 142.324219 161.609375 138.863281 162.59375 135.585938 163.917969 Z M 135.585938 163.917969 " fill-opacity="1" fill-rule="nonzero"/></svg>